<?xml version="1.0" encoding="utf-8"?> <!-- Generator: IcoMoon.io --> <!DOCTYPE svg PUBLIC "-//W3C//DTD SVG 1.1//EN" "http://www.w3.org/Graphics/SVG/1.1/DTD/svg11.dtd"> <svg width="32" height="32" viewBox="0 0 32 32" xmlns="http://www.w3.org/2000/svg" xmlns:xlink="http://www.w3.org/1999/xlink" fill="#667d95"><g><path d="M 27.713,4.257C 19.659,3.112, 11.619,3.109, 3.545,4.26C 1.459,4.572,0,6.547,0,8.664l0,14.667 c0,2.117, 1.211,4.093, 3.309,4.408 c 4.028,0.573, 7.888,0.863, 11.957,0.863s 8.541-0.291, 12.579-0.864C 29.935,27.424, 32,25.448, 32,23.331L 32,8.667 C 32,6.549, 29.815,4.573, 27.713,4.257z M 2.667,8.667c0-0.807, 0.237-1.651, 1.019-1.768c 3.523-0.5, 6.915-0.767, 10.439-0.816l-5.225,9.275L 2.667,15.357 L 2.667,8.667 z M 29.333,23.331c0,0.807-1.211,1.649-1.995,1.767c-7.807,1.111-15.612,1.108-23.399,0.001C 3.145,24.98, 2.667,24.139, 2.667,23.331l0-5.307 l 7.815,0 l 2.361-3.677l 1.132,9.573l 6.856-5.896L 29.333,18.024 L 29.333,23.331 z M 29.333,15.357l-9.451,0 l-3.811,3.751l-1.455-13.035 c 0.219-0.001, 0.431-0.012, 0.649-0.012c 3.944,0, 8.291,0.283, 12.184,0.835C 28.245,7.016, 29.333,7.859, 29.333,8.664L 29.333,15.357 zM 21.336,9.331L 22.664,9.331L 22.664,10.667L 21.336,10.667zM 24,9.331L 25.336,9.331L 25.336,10.667L 24,10.667z"></path></g></svg>